<svg width="50" height="52" viewBox="0 0 50 52" fill="none" xmlns="http://www.w3.org/2000/svg">
<path fill-rule="evenodd" clip-rule="evenodd" d="M24.7688 16.8164C19.841 16.8164 15.8462 20.8112 15.8462 25.7391C15.8462 30.6668 19.841 34.6617 24.7688 34.6617C29.6967 34.6617 33.6914 30.6668 33.6914 25.7391C33.6914 20.8112 29.6967 16.8164 24.7688 16.8164ZM20.3074 25.7391C20.3074 23.2751 22.305 21.2777 24.7688 21.2777C27.2328 21.2777 29.2301 23.2751 29.2301 25.7391C29.2301 28.2031 27.2328 30.2004 24.7688 30.2004C22.305 30.2004 20.3074 28.2031 20.3074 25.7391Z" fill="white"/>
<path fill-rule="evenodd" clip-rule="evenodd" d="M23.1765 0.0872803C20.0518 0.0872803 17.2865 2.24523 16.6745 5.34258L16.4981 6.23518C16.0793 8.35457 13.753 9.7469 11.4848 8.98303L10.5996 8.68489C7.64238 7.68892 4.33283 8.85265 2.72601 11.5508L1.13464 14.2231C-0.487397 16.9468 0.129617 20.3962 2.54959 22.4245L3.25862 23.0187C4.98117 24.4626 4.98117 27.0148 3.25862 28.4586L2.54959 29.0528C0.129617 31.0811 -0.487397 34.5304 1.13464 37.2541L2.72594 39.9263C4.33281 42.6246 7.64247 43.7883 10.5998 42.7924L11.4847 42.4942C13.7529 41.7302 16.0793 43.1225 16.4981 45.242L16.6745 46.1347C17.2865 49.232 20.0518 51.3901 23.1765 51.3901H26.3593C29.4843 51.3901 32.2495 49.232 32.8616 46.1344L33.0378 45.2422C33.4565 43.1227 35.7829 41.7302 38.0512 42.4942L38.9363 42.7924C41.8935 43.7883 45.2032 42.6246 46.8101 39.9263L48.4014 37.2544C50.0235 34.5306 49.4063 31.0811 46.9863 29.0528L46.2773 28.4586C44.5546 27.015 44.5546 24.4623 46.2773 23.0187L46.9863 22.4245C49.4063 20.3962 50.0235 16.9468 48.4014 14.223L46.8101 11.5508C45.2032 8.85265 41.8938 7.6889 38.9365 8.68482L38.051 8.98305C35.7829 9.7469 33.4565 8.35448 33.0378 6.23507L32.8616 5.34283C32.2495 2.24537 29.4843 0.0872803 26.3593 0.0872803H23.1765ZM21.051 6.20737C21.2319 5.29193 22.0871 4.54839 23.1765 4.54839H26.3593C27.4489 4.54839 28.3041 5.29197 28.485 6.20743L28.6612 7.09968C29.6282 11.9942 34.7848 14.7904 39.4747 13.2108L40.3603 12.9126C41.3841 12.5678 42.4768 12.9932 42.9771 13.8334L44.5684 16.5056C45.0536 17.3203 44.889 18.3616 44.1208 19.0054L43.4119 19.5996C39.5617 22.8262 39.5617 28.6511 43.4119 31.8778L44.1208 32.4718C44.889 33.1158 45.0536 34.157 44.5684 34.9718L42.9771 37.6438C42.4768 38.4841 41.3841 38.9094 40.3603 38.5646L39.4749 38.2664C34.7848 36.6867 29.6282 39.4829 28.6612 44.3776L28.485 45.2699C28.3041 46.1853 27.4489 46.929 26.3593 46.929H23.1765C22.0871 46.929 21.2319 46.1855 21.051 45.2699L20.8746 44.3772C19.9075 39.4827 14.7508 36.6867 10.0607 38.2666L9.17575 38.5646C8.15197 38.9094 7.05926 38.4841 6.55888 37.6438L4.96758 34.9716C4.48244 34.157 4.64703 33.1158 5.41521 32.4718L6.12424 31.8776C9.97411 28.6509 9.97409 22.8265 6.12424 19.5997L5.41521 19.0054C4.64703 18.3616 4.48244 17.3203 4.96758 16.5057L6.55895 13.8334C7.05931 12.9932 8.15199 12.5679 9.17575 12.9127L10.061 13.2108C14.751 14.7903 19.9074 11.9944 20.8746 7.09997L21.051 6.20737Z" fill="white"/>
</svg>
